<?xml version="1.0" standalone="no"?>
<!DOCTYPE svg PUBLIC "-//W3C//DTD SVG 20010904//EN"
 "http://www.w3.org/TR/2001/REC-SVG-20010904/DTD/svg10.dtd">
<svg version="1.0" xmlns="http://www.w3.org/2000/svg"
 width="415.000000pt" height="415.000000pt" viewBox="0 0 415.000000 415.000000"
 preserveAspectRatio="xMidYMid meet">
<metadata>
Created by potrace 1.11, written by Peter Selinger 2001-2013
</metadata>
<g transform="translate(0.000000,415.000000) scale(0.100000,-0.100000)"
fill="#000000" stroke="none">
<path d="M1956 3894 c-87 -28 -167 -95 -242 -206 -18 -25 -42 -47 -55 -50 -94
-21 -844 -215 -969 -252 -262 -76 -451 -157 -537 -230 -51 -45 -91 -119 -109
-207 -17 -83 -17 -228 1 -262 6 -13 11 -31 9 -40 -1 -9 4 -17 12 -17 15 0 19
-16 6 -22 -5 -1 -12 -15 -15 -29 -5 -20 -2 -29 9 -33 13 -5 14 -3 7 6 -6 7 -7
22 -3 33 6 17 8 16 14 -12 9 -39 0 -57 -23 -48 -12 5 -13 3 -4 -6 6 -6 9 -17
7 -24 -3 -7 -1 -16 5 -20 7 -4 11 4 11 20 0 28 18 26 19 -3 0 -9 2 -36 4 -60
2 -23 0 -45 -5 -48 -5 -4 0 -16 12 -29 31 -33 40 -75 22 -106 -14 -25 -12 -35
31 -165 60 -186 97 -275 172 -424 142 -278 298 -466 497 -600 202 -135 410
-211 1012 -366 182 -46 338 -88 346 -93 8 -5 14 -16 12 -25 -5 -26 44 -208 72
-266 34 -73 79 -126 122 -146 33 -16 44 -16 154 -1 92 12 128 22 160 42 22 14
46 23 52 19 6 -4 8 -3 5 3 -4 6 10 23 31 39 20 15 39 31 42 34 51 67 76 89 94
84 16 -5 18 -2 13 17 -4 17 1 32 17 50 22 26 26 26 72 17 27 -6 58 -10 68 -10
10 1 28 -5 39 -13 15 -11 24 -12 34 -3 9 7 13 7 13 0 0 -7 7 -9 17 -5 12 5 15
2 11 -9 -4 -8 -1 -15 7 -15 7 0 11 6 8 13 -3 8 2 11 14 9 10 -2 25 -4 34 -4
24 -1 31 -28 13 -46 -20 -20 -10 -19 21 1 27 18 34 37 10 28 -8 -4 -15 -1 -15
5 0 6 13 10 28 9 16 -1 42 8 60 20 44 32 167 180 237 287 74 113 165 292 165
326 0 33 -45 80 -146 152 -79 56 -174 131 -174 138 0 4 28 55 63 113 130 220
160 264 173 259 8 -3 12 -9 9 -13 -3 -5 0 -12 6 -16 8 -4 9 -3 5 4 -11 18 10
14 28 -4 9 -8 16 -13 16 -10 0 3 12 1 26 -4 22 -9 25 -8 20 5 -3 8 -1 15 4 15
9 0 14 -15 11 -33 -1 -5 3 -6 8 -3 5 4 12 2 15 -3 10 -16 45 0 49 23 4 21 4
21 6 -1 0 -13 3 -23 6 -23 12 0 70 33 77 43 34 53 45 423 15 519 -45 146 -246
230 -1042 433 -446 113 -522 135 -709 203 -86 31 -100 39 -111 66 -18 43 -74
256 -81 303 -2 21 -9 70 -15 108 -6 39 -9 82 -7 97 3 15 1 25 -4 22 -10 -6
-10 184 0 206 7 15 22 22 57 25 11 1 30 7 43 14 12 6 27 9 32 6 6 -3 10 -2 10
4 0 18 87 33 108 18 41 -31 14 57 -31 100 -76 73 -206 101 -311 67z m-506
-496 c0 6 7 12 15 12 11 0 12 -5 5 -25 -5 -14 -7 -25 -4 -25 3 0 -4 -13 -16
-30 -12 -16 -19 -30 -16 -30 4 0 -5 -23 -19 -50 -17 -33 -30 -48 -38 -44 -7 4
-9 4 -5 -1 9 -10 -22 -65 -37 -65 -6 0 -15 -10 -20 -22 -6 -13 -14 -23 -20
-22 -5 1 -14 -4 -20 -11 -5 -7 -18 -15 -27 -18 -14 -5 -18 -1 -18 18 0 14 -4
25 -10 25 -5 0 -10 -4 -10 -10 0 -5 -7 -10 -15 -10 -8 0 -15 -4 -15 -9 0 -16
-58 -30 -89 -21 -16 4 -32 6 -35 3 -2 -3 -38 0 -78 7 -70 12 -75 15 -130 71
-52 53 -84 97 -76 103 5 5 124 36 134 36 5 0 2 -5 -6 -10 -9 -6 -10 -10 -3
-10 7 0 16 6 20 14 7 11 68 30 173 52 14 3 97 22 185 43 110 26 162 34 167 27
5 -8 8 -7 8 2z m249 -34 c-10 -12 -9 -13 5 -8 11 4 16 1 16 -14 0 -11 -6 -23
-12 -25 -12 -5 17 -11 36 -8 5 1 6 -5 3 -14 -8 -20 -1 -19 22 4 11 11 17 22
14 25 -4 3 -2 6 4 6 21 0 22 -28 1 -33 -11 -3 -17 -10 -13 -16 3 -6 1 -11 -4
-11 -6 0 -11 -7 -11 -16 0 -8 5 -12 11 -9 12 8 51 -24 43 -36 -3 -5 3 -6 13
-2 15 5 16 3 6 -8 -7 -7 -13 -21 -13 -31 0 -10 -6 -18 -12 -19 -10 0 -10 -2 0
-6 8 -3 2 -16 -19 -38 l-31 -33 -29 26 c-16 14 -29 34 -29 44 0 10 -6 17 -12
16 -7 -2 -12 3 -10 10 1 6 -3 12 -9 12 -5 0 -8 4 -4 9 3 5 1 12 -4 16 -6 3 -7
13 -4 21 3 9 0 19 -6 24 -16 9 -22 62 -9 78 9 10 14 10 27 0 14 -11 14 -11 3
4 -11 13 -11 20 -1 36 7 11 19 18 26 15 10 -4 11 -9 2 -19z m-93 -136 c4 -13
10 -25 13 -28 10 -7 91 -145 91 -154 0 -4 -27 -39 -60 -79 -100 -118 -76 -152
97 -141 99 6 101 6 114 -17 16 -32 99 -146 124 -173 16 -16 20 -34 19 -81 -1
-54 -16 -146 -31 -185 -3 -8 -7 -21 -9 -28 -15 -74 -30 -112 -43 -113 -11 0
-12 -2 -3 -6 6 -2 10 -9 7 -13 -3 -5 -12 -7 -20 -4 -8 4 -13 10 -10 14 3 4 -3
7 -12 6 -9 0 -18 5 -21 13 -3 9 0 11 9 7 8 -4 5 0 -6 9 -11 9 -19 24 -17 33 2
14 1 14 -7 3 -8 -12 -12 -13 -26 -1 -14 11 -16 11 -13 0 2 -8 -5 -16 -14 -18
-10 -2 -18 2 -18 8 0 6 6 8 13 4 9 -5 9 -4 0 6 -10 11 -9 16 5 27 15 13 14 13
-6 3 -26 -13 -43 -5 -35 16 4 12 8 12 21 2 13 -11 15 -10 10 4 -9 22 1 29 23
17 13 -7 19 -6 19 1 0 6 4 9 9 6 5 -3 11 0 14 8 5 11 0 13 -24 6 -16 -5 -29
-6 -29 -3 0 3 -7 0 -15 -7 -8 -6 -18 -9 -23 -6 -16 10 -34 -21 -27 -44 12 -37
62 -105 118 -160 37 -36 53 -59 50 -71 -4 -15 -16 -9 -70 37 -186 158 -363
249 -913 471 -157 63 -339 139 -405 169 -130 59 -275 142 -275 158 0 5 18 47
41 94 36 74 45 86 82 103 23 10 50 19 60 19 10 0 82 -31 160 -68 157 -76 216
-102 237 -105 8 -2 20 -6 27 -10 6 -4 47 -8 90 -9 63 -1 92 3 139 22 32 13 67
31 77 39 9 8 17 11 17 8 0 -8 190 67 257 102 32 17 81 53 108 81 56 55 70 60
81 28z m728 -480 c-3 -5 0 -7 7 -6 7 2 13 -3 14 -11 0 -8 8 -15 18 -17 20 -3
103 -84 87 -84 -6 0 -10 -7 -10 -15 0 -8 -6 -15 -12 -16 -10 0 -10 -2 -1 -5 8
-4 6 -16 -9 -40 -22 -37 -50 -57 -64 -46 -5 4 -6 3 -2 -2 4 -5 3 -15 -3 -23
-13 -15 -33 -18 -24 -3 3 6 2 10 -3 10 -7 0 -31 38 -37 60 -1 3 -9 23 -18 45
-10 22 -17 44 -17 48 1 4 -6 15 -15 23 -17 18 -21 89 -4 79 6 -4 8 -14 5 -24
-5 -13 -3 -13 8 2 9 12 16 14 21 8 3 -6 10 -11 16 -11 5 0 0 9 -11 20 -19 19
-19 21 -2 38 16 16 18 16 39 -2 12 -10 20 -23 17 -28z m274 -125 c-7 -9 -4
-11 11 -8 11 2 24 -2 28 -9 8 -13 95 -116 120 -141 7 -7 9 -15 6 -19 -4 -3 1
-6 11 -6 9 0 19 -6 22 -14 3 -8 23 -33 44 -56 26 -28 37 -47 32 -58 -6 -15 -7
-15 -10 0 -2 10 -14 21 -27 24 -13 3 -26 12 -29 20 -3 7 -12 11 -21 8 -11 -5
-14 -2 -8 12 4 11 3 15 -4 11 -10 -6 -27 27 -24 46 1 4 -4 7 -9 7 -5 0 -10 -4
-10 -10 0 -5 -4 -10 -10 -10 -5 0 -7 6 -4 14 3 7 -2 20 -10 29 -8 8 -13 16
-11 18 2 3 -10 5 -27 6 -37 1 -53 22 -30 39 9 7 14 16 9 20 -4 4 -7 2 -7 -4 0
-7 -6 -12 -14 -12 -9 0 -13 7 -11 20 2 12 -2 20 -10 20 -8 0 -19 9 -26 21 -8
15 -18 20 -35 16 -13 -2 -24 0 -24 4 0 5 6 9 14 9 7 0 16 14 20 32 l6 32 24
-24 c16 -17 20 -29 14 -37z m155 34 c18 -7 42 -12 55 -11 12 1 22 -2 22 -7 0
-4 13 -10 29 -14 22 -5 28 -11 24 -23 -4 -13 -3 -14 5 -3 8 11 16 11 41 3 23
-8 31 -8 31 0 0 7 7 3 15 -8 14 -18 16 -18 26 -1 10 17 29 15 29 -4 0 -6 -5
-7 -12 -3 -7 4 -8 3 -4 -4 4 -7 13 -12 20 -12 8 0 27 -7 42 -15 16 -8 38 -15
50 -15 11 0 26 -6 33 -12 11 -10 13 -10 7 0 -4 6 -3 12 3 12 5 0 17 3 27 7 12
4 15 2 12 -8 -3 -8 -12 -12 -19 -11 -8 2 -10 0 -6 -5 5 -4 10 -7 13 -6 2 1 20
-5 39 -13 20 -8 40 -12 45 -9 6 4 10 2 10 -4 0 -9 57 -32 90 -36 8 -1 37 -11
63 -23 27 -12 54 -22 61 -22 7 0 16 -4 21 -8 6 -5 23 -14 39 -21 26 -11 28
-10 17 3 -10 12 -9 15 8 13 12 -1 20 -7 18 -15 -1 -7 19 -22 48 -33 28 -12 58
-25 68 -30 11 -6 17 -6 17 2 0 5 5 7 10 4 6 -4 8 -10 6 -14 -3 -4 20 -21 50
-37 29 -16 54 -32 54 -36 0 -3 9 -4 20 -1 13 3 20 0 20 -8 0 -8 13 -23 30 -34
16 -11 32 -25 34 -32 8 -19 -81 -92 -189 -156 -92 -55 -101 -58 -144 -52 -63
9 -234 55 -246 66 -5 5 -19 9 -31 9 -13 0 -29 7 -37 15 -8 8 -17 12 -20 9 -6
-7 -70 25 -79 39 -4 6 -4 15 -1 20 3 5 9 3 14 -4 6 -10 9 -8 9 8 0 15 -6 21
-19 20 -11 0 -17 -5 -15 -9 12 -18 -9 -28 -22 -11 -15 21 -18 37 -5 28 5 -3
12 -1 16 5 9 14 91 5 87 -10 -2 -9 5 -10 23 -6 17 4 24 3 20 -4 -3 -5 -5 -10
-3 -11 19 -4 88 -6 76 -2 -22 6 -23 17 -3 33 12 10 15 7 20 -12 6 -23 9 -24
62 -17 30 4 56 9 58 11 28 35 95 133 95 141 0 7 -95 8 -305 3 -217 -5 -305 -4
-305 4 0 7 -6 7 -21 -1 -17 -9 -23 -8 -30 2 -6 9 -3 15 6 17 8 2 15 7 15 11 0
14 -36 41 -45 34 -4 -5 -5 0 -2 9 3 9 -1 22 -9 29 -9 7 -22 26 -31 43 -9 17
-24 38 -34 47 -11 9 -19 21 -19 28 0 6 -4 11 -10 11 -5 0 -7 -7 -3 -15 3 -9 2
-15 -3 -14 -20 3 -24 -2 -14 -20 7 -13 17 -18 32 -14 19 5 21 3 11 -7 -10 -11
-7 -18 13 -35 l26 -22 -24 0 c-16 0 -33 12 -53 39 -17 22 -29 45 -27 50 1 5
-2 7 -7 4 -12 -8 -42 34 -35 46 3 5 2 7 -3 6 -12 -4 -83 73 -83 90 0 7 -4 10
-10 7 -5 -3 -10 -2 -10 4 0 15 14 21 38 14 13 -3 35 -28 53 -59 17 -30 36 -54
42 -54 7 0 6 -4 -3 -10 -8 -5 -10 -10 -5 -11 6 0 18 -2 28 -4 9 -2 18 1 18 6
1 5 2 14 3 21 1 13 -61 78 -75 78 -5 0 -9 5 -9 12 0 6 -7 20 -17 30 -19 21
-13 22 30 5z m-166 -147 c43 -42 99 -93 125 -115 26 -21 44 -43 41 -49 -3 -5
-1 -6 4 -3 6 4 32 -10 58 -30 46 -35 47 -37 25 -45 -13 -5 -107 -7 -209 -6
l-186 3 -47 79 c-34 57 -45 83 -39 95 16 28 133 152 142 149 5 -2 44 -37 86
-78z m-2387 20 c10 -6 11 -10 3 -10 -7 0 -13 -4 -13 -9 0 -6 9 -8 20 -6 21 4
118 -47 132 -69 4 -6 8 -8 8 -4 0 6 188 -76 220 -97 8 -5 21 -10 27 -11 31 -5
211 -79 207 -85 -2 -4 1 -11 7 -15 8 -5 9 -3 4 6 -9 15 -16 16 123 -30 51 -17
90 -35 87 -40 -3 -5 5 -8 17 -8 35 3 107 -23 102 -36 -6 -16 -61 -39 -74 -31
-6 4 -9 2 -8 -4 2 -6 -15 -21 -37 -34 -22 -12 -50 -32 -63 -45 -13 -13 -30
-21 -38 -18 -7 3 -11 0 -8 -7 2 -7 -5 -22 -16 -34 -11 -12 -20 -27 -20 -33 0
-5 -5 -9 -11 -7 -6 1 -16 -7 -22 -17 -30 -49 -38 -52 -181 -64 -99 -8 -144 -9
-158 -1 -15 8 -19 8 -14 0 8 -13 4 -14 -18 -5 -9 3 -14 9 -12 13 3 4 -22 7
-55 6 -32 0 -59 4 -59 9 0 5 -3 7 -6 3 -10 -10 -73 81 -83 121 -6 20 -19 72
-31 115 -11 43 -18 82 -15 87 3 5 1 11 -4 14 -4 3 -11 29 -15 57 -6 43 -4 53
11 65 17 12 16 13 -4 7 -25 -6 -24 -13 -28 155 -2 74 0 78 25 62z m2545 -291
c-4 -5 -15 -9 -25 -9 -10 0 -21 -4 -24 -9 -4 -5 4 -7 16 -3 16 4 19 2 13 -9
-8 -12 -6 -12 8 0 14 11 17 11 17 0 0 -10 3 -10 12 -1 9 9 15 9 27 0 9 -7 6
-1 -6 13 l-23 25 41 1 c34 2 39 0 25 -10 -20 -15 -11 -56 13 -58 21 -2 -71
-18 -130 -23 -26 -2 -51 -6 -55 -8 -5 -3 -30 -8 -55 -12 -46 -7 -59 0 -84 43
-6 11 -4 13 11 8 18 -7 18 -7 0 8 -19 15 -19 15 2 15 20 0 27 -10 23 -32 0 -4
10 -2 24 4 14 6 25 17 25 25 0 7 5 13 11 13 6 0 9 -7 5 -15 -3 -8 -1 -15 4
-15 6 0 10 11 10 25 0 14 4 25 9 25 6 0 8 -9 6 -20 -2 -11 0 -18 6 -15 5 4 9
12 9 20 0 12 10 15 73 22 9 1 15 -2 12 -8z m318 -117 c-13 -2 -23 -6 -23 -10
0 -4 10 -8 23 -9 71 -5 105 -16 170 -56 68 -43 125 -76 174 -102 12 -6 30 -21
40 -33 13 -16 25 -20 41 -16 12 4 22 10 22 15 0 5 9 0 20 -11 26 -26 25 -34
-1 -19 -12 6 -19 7 -16 1 9 -14 -10 -33 -83 -84 -148 -104 -246 -227 -328
-413 -56 -125 -144 -358 -159 -421 l-15 -62 -57 -6 c-61 -6 -148 -8 -372 -7
l-145 1 -57 118 c-31 64 -69 151 -86 192 -31 81 -103 302 -99 306 2 1 149 39
328 84 466 118 707 202 817 286 38 29 43 62 14 88 -17 15 -110 56 -129 56 -4
0 -18 -18 -32 -39 -13 -22 -34 -45 -47 -52 -25 -13 -29 -24 -13 -34 20 -12 9
-49 -22 -77 -17 -15 -36 -28 -40 -28 -5 0 -7 -4 -4 -9 3 -5 -1 -12 -9 -15 -17
-6 -20 0 -29 53 -6 36 -66 101 -92 101 -8 0 -17 6 -20 14 -3 9 -12 12 -22 9
-11 -5 -14 -2 -10 9 4 10 1 15 -10 14 -12 -1 -17 10 -20 42 -2 29 1 41 8 37 5
-3 10 -1 10 6 0 7 3 10 6 7 3 -4 17 0 31 7 14 7 32 11 39 8 8 -3 14 0 14 7 0
6 -4 8 -10 5 -5 -3 -10 -1 -10 4 0 6 -8 12 -17 12 -10 1 2 5 27 9 29 5 50 4
59 -4 11 -8 13 -8 8 1 -8 13 107 33 133 24 11 -4 8 -7 -7 -9z m-552 -128 c27
-4 43 -15 67 -46 18 -23 32 -45 32 -49 0 -4 -21 -6 -47 -4 -27 3 -76 5 -110 6
l-63 2 0 31 c0 17 -3 41 -7 54 -6 26 -11 25 128 6z m-247 -162 c13 7 21 7 26
-2 4 -7 13 -9 20 -5 10 6 12 2 8 -13 -4 -12 -1 -25 4 -29 7 -3 8 -1 4 5 -12
19 1 14 44 -17 22 -15 36 -32 32 -36 -4 -5 -2 -5 5 -1 7 4 27 -1 45 -10 44
-23 150 -52 168 -46 10 3 12 1 5 -5 -8 -8 -368 -103 -388 -103 -3 0 -2 12 0
28 4 25 3 26 -9 7 -7 -11 -13 -24 -13 -29 0 -5 -10 -12 -22 -17 -20 -7 -23 -5
-23 16 0 14 -4 25 -9 25 -4 0 -6 -11 -3 -25 2 -14 1 -25 -4 -23 -5 1 -20 -4
-33 -11 -21 -12 -23 -11 -18 3 3 8 1 18 -4 22 -6 3 -9 17 -6 30 2 13 0 25 -5
26 -6 2 3 10 18 18 84 45 107 112 58 169 -36 43 -18 56 41 31 30 -13 46 -15
59 -8z m1671 -23 c5 -6 5 -9 -2 -9 -6 0 -14 -8 -17 -17 -4 -10 -4 -14 0 -11 7
8 34 -16 34 -30 0 -6 -9 -8 -20 -5 -11 3 -20 1 -20 -4 0 -13 -40 -14 -63 -1
-15 8 -17 12 -6 18 7 5 17 6 23 3 5 -3 6 -1 2 5 -4 6 -14 8 -23 5 -11 -4 -14
-3 -9 6 7 11 -11 4 -44 -17 -2 -2 2 -7 10 -12 24 -15 2 -24 -27 -11 -27 12
-27 13 -8 27 10 8 14 14 7 14 -7 0 -9 7 -5 17 4 11 8 12 11 5 2 -7 8 -12 13
-12 6 0 8 4 5 9 -7 10 22 25 42 22 6 -1 12 3 12 8 0 11 70 3 85 -10z m-2840
-240 c9 -16 21 -29 28 -30 6 0 3 -5 -8 -10 -19 -8 -19 -9 -1 -6 14 1 20 10 21
29 1 15 -2 25 -7 22 -4 -3 -6 -10 -3 -15 4 -5 1 -9 -4 -9 -16 0 -13 26 3 39
11 9 20 6 43 -15 22 -20 29 -23 31 -11 2 8 10 18 19 21 11 5 14 2 9 -10 -6
-15 -4 -15 11 -3 15 12 16 12 10 -3 -3 -10 -1 -20 5 -24 7 -5 5 -12 -7 -21
-11 -7 -14 -13 -9 -13 19 0 34 23 24 36 -8 8 -4 12 15 12 32 0 38 -10 24 -41
-8 -17 -18 -23 -34 -21 -18 1 -22 -2 -18 -14 5 -12 1 -14 -15 -10 -12 4 -22 3
-22 0 0 -10 -51 -32 -72 -32 -10 0 -18 -4 -18 -9 0 -10 -59 -21 -77 -14 -7 3
-11 8 -8 12 2 4 -2 8 -10 8 -8 0 -11 -5 -8 -10 3 -5 0 -7 -8 -5 -8 3 -13 11
-11 17 3 15 -7 14 -24 -4 -17 -17 -49 -21 -39 -5 3 6 -5 14 -20 20 l-25 10 27
50 c15 27 31 50 35 50 12 0 9 -18 -5 -32 -8 -7 -12 -20 -9 -30 2 -10 -1 -18
-9 -18 -15 0 -3 -13 15 -16 8 -1 14 7 13 20 0 11 2 28 4 36 5 17 43 50 58 50
6 0 8 6 5 13 -3 10 4 14 26 15 24 0 33 -6 45 -29z m-145 10 c0 -4 -5 -11 -10
-14 -12 -8 -63 -105 -55 -105 3 0 1 -9 -5 -20 -7 -14 -7 -20 0 -20 5 0 10 -5
10 -10 0 -7 -7 -7 -21 1 -13 7 -19 7 -15 1 3 -6 2 -13 -3 -16 -5 -3 -11 3 -14
14 -3 14 -14 20 -32 20 -24 0 -25 1 -11 16 20 19 20 24 0 24 -8 0 -12 -4 -9
-10 7 -12 3 -12 -19 -4 -9 3 -16 10 -16 16 0 5 5 6 10 3 6 -3 10 -1 10 4 0 6
-4 11 -9 11 -6 0 -6 12 0 30 6 17 15 30 20 30 5 0 8 3 8 8 -5 28 4 31 81 30
44 -1 80 -5 80 -9z m582 -77 c7 -7 21 -12 33 -12 16 0 17 -2 5 -9 -8 -6 -17
-8 -22 -5 -9 6 -29 -31 -21 -40 3 -3 1 -7 -5 -7 -20 -2 -27 -4 -37 -10 -44
-27 -132 -43 -270 -49 -18 -1 -89 11 -94 15 -6 7 4 16 21 19 7 2 20 6 28 9 30
13 127 45 200 67 41 13 84 26 94 30 27 9 54 6 68 -8z m234 -140 c-3 -5 1 -9 9
-9 8 0 12 4 9 9 -10 15 21 8 46 -12 14 -11 31 -20 38 -20 6 0 12 -4 12 -8 0
-4 8 -9 18 -10 9 -1 26 -3 36 -4 15 -2 20 4 21 25 2 35 3 36 45 24 30 -8 32
-10 15 -17 -11 -4 -24 -5 -29 -2 -5 3 -6 -1 -1 -8 5 -8 -1 -19 -16 -32 -20
-15 -21 -17 -4 -12 16 6 18 5 8 -7 -7 -7 -13 -20 -12 -28 0 -10 4 -7 9 7 5 12
14 22 20 22 5 0 9 3 9 8 -4 23 3 43 13 40 16 -6 19 -41 5 -50 -8 -5 -4 -8 10
-8 15 0 20 -5 18 -17 -3 -21 12 -43 29 -43 8 0 8 3 0 8 -16 11 -24 41 -14 47
16 10 12 23 -8 29 -18 6 -27 36 -10 36 4 0 11 0 16 0 4 0 7 -4 7 -9 0 -5 3
-13 8 -17 4 -4 7 -1 7 6 0 11 3 11 12 2 8 -8 8 -15 -3 -28 -12 -16 -12 -17 4
-11 12 5 17 1 17 -13 0 -11 -4 -20 -8 -20 -4 0 -8 -11 -8 -24 0 -14 4 -24 9
-23 11 2 15 -17 22 -113 3 -41 8 -87 11 -102 6 -30 4 -31 -20 -22 -9 3 -13 11
-9 18 4 6 -2 4 -12 -4 -17 -14 -18 -13 -12 3 4 10 7 30 7 43 0 14 4 23 8 20 5
-3 9 1 9 8 0 8 -5 12 -11 10 -16 -6 -36 -53 -29 -70 6 -17 7 -17 -57 -3 -27 6
-50 15 -50 20 0 4 -7 6 -15 3 -8 -4 -22 -1 -30 6 -8 7 -15 9 -15 4 0 -5 -5 -2
-10 6 -8 11 -12 12 -18 3 -4 -7 -13 -9 -21 -4 -7 5 -22 6 -32 4 -15 -4 -19 0
-19 18 0 13 -4 20 -8 14 -10 -14 -46 -19 -37 -6 3 6 0 11 -7 11 -8 1 -6 6 6
15 11 8 17 17 14 21 -3 3 -15 -4 -26 -16 -17 -18 -21 -19 -29 -7 -10 19 -47
26 -49 10 -1 -7 -2 -17 -3 -23 0 -5 -15 -10 -32 -10 -20 0 -29 4 -26 13 2 6
14 11 26 9 20 -2 21 -1 7 14 -9 8 -13 21 -9 27 3 7 3 9 -2 5 -4 -4 -17 -3 -28
3 -14 8 -18 8 -13 0 4 -6 3 -11 -3 -11 -15 0 -19 23 -9 45 8 19 8 19 -5 3 -15
-18 -33 -25 -23 -9 3 5 -1 11 -9 15 -8 3 -17 1 -21 -5 -9 -15 5 -61 17 -53 5
3 19 -4 30 -17 23 -27 23 -29 3 -29 -9 0 -12 5 -8 13 5 7 0 6 -11 -3 -13 -11
-19 -12 -22 -3 -2 7 -11 9 -19 6 -8 -3 -14 -2 -13 3 4 21 -2 34 -15 34 -8 0
-17 6 -19 13 -4 7 -6 6 -6 -4 -1 -9 9 -19 21 -23 18 -4 20 -8 11 -17 -8 -8
-16 -9 -25 -2 -7 5 -26 8 -41 7 -16 -2 -38 1 -50 6 -12 5 -16 9 -9 9 18 1 15
21 -4 21 -15 0 -15 2 -1 23 8 12 20 21 26 20 6 -2 10 2 8 9 -2 11 3 13 35 17
6 0 8 4 5 7 -13 14 58 108 74 98 5 -3 6 2 3 10 -8 21 30 38 71 33 19 -3 35 -1
37 3 2 4 30 11 62 14 33 3 61 8 64 11 9 8 34 6 28 -3z m854 -614 c19 0 38 -6
42 -12 5 -8 8 -7 8 2 0 18 47 15 54 -4 3 -9 4 -20 0 -25 -3 -5 2 -9 10 -9 12
0 14 5 6 25 -11 29 1 33 24 9 9 -8 16 -11 16 -5 0 6 21 10 50 10 29 -1 50 -6
50 -13 0 -7 3 -7 8 1 4 7 13 9 21 4 10 -6 10 -10 2 -16 -9 -5 -9 -10 0 -21 9
-11 7 -14 -10 -14 -14 0 -21 -6 -21 -20 0 -12 -7 -20 -17 -20 -15 0 -16 2 -3
10 9 6 10 10 3 10 -7 0 -16 -7 -21 -16 -7 -12 -11 -13 -17 -4 -9 14 2 26 30
33 13 3 8 5 -13 6 -18 0 -31 -3 -27 -8 3 -5 1 -12 -5 -16 -5 -3 -10 0 -10 7 0
9 -2 10 -8 2 -9 -15 -125 -15 -134 0 -13 19 -9 29 7 16 8 -7 15 -9 15 -4 0 5
5 2 10 -6 6 -10 10 -11 10 -3 0 9 11 11 35 7 25 -4 35 -2 35 8 0 9 -20 13 -74
14 -41 1 -79 5 -85 9 -6 3 -11 0 -11 -7 0 -8 -3 -9 -8 -3 -9 12 -52 15 -52 3
0 -7 38 -12 67 -9 6 1 14 -3 18 -9 7 -11 3 -12 -68 -15 -44 -1 -51 2 -77 33
-41 50 -31 63 44 57 33 -3 77 -6 96 -7z m115 -232 c11 -3 22 -5 24 -5 2 -1 -3
-9 -12 -18 -13 -16 -14 -21 -1 -37 13 -19 14 -18 20 13 8 37 27 49 50 30 13
-11 13 -15 2 -23 -7 -6 -13 -18 -13 -26 0 -8 -5 -14 -11 -13 -6 1 -11 -8 -10
-20 1 -27 -22 -57 -40 -50 -10 4 -14 -3 -14 -22 0 -28 -72 -119 -84 -107 -3 3
-6 0 -6 -7 0 -7 -4 -9 -10 -6 -5 3 -10 -1 -10 -11 0 -14 -3 -14 -15 -4 -12 10
-13 16 -4 26 6 8 15 11 20 8 5 -3 9 0 9 5 0 14 -17 14 -25 1 -4 -6 -11 -7 -17
-4 -6 4 -8 2 -5 -3 8 -12 -19 -38 -50 -47 -15 -5 -35 1 -62 19 l-41 25 1 88
c0 48 3 81 6 75 2 -7 12 -13 21 -13 15 0 15 2 2 11 -12 8 -12 9 5 8 11 -2 29
0 40 4 11 4 36 8 55 9 19 1 45 8 58 16 12 8 22 11 22 6 0 -4 6 1 14 11 8 11
20 16 29 12 11 -4 14 -2 10 9 -3 7 -9 14 -14 14 -5 0 -19 10 -31 22 l-21 21
44 -6 c24 -4 53 -9 64 -11z"/>
<path d="M1276 3213 c-6 -14 -5 -15 5 -6 7 7 10 15 7 18 -3 3 -9 -2 -12 -12z"/>
<path d="M1240 3115 c0 -9 6 -12 15 -9 8 4 12 10 9 15 -8 14 -24 10 -24 -6z"/>
<path d="M1770 3217 c0 -9 4 -18 9 -21 5 -4 8 1 7 9 -3 21 -16 31 -16 12z"/>
<path d="M1707 3183 c3 -7 6 -13 8 -13 2 0 5 6 8 13 3 8 -1 14 -8 14 -7 0 -11
-6 -8 -14z"/>
<path d="M1726 3151 c-4 -5 -2 -12 3 -15 5 -4 12 -2 15 3 4 5 2 12 -3 15 -5 4
-12 2 -15 -3z"/>
<path d="M1905 2373 c3 -3 -1 -13 -8 -21 -8 -11 -8 -14 0 -9 6 4 14 1 17 -5 2
-7 4 -3 2 9 -1 12 -5 25 -9 28 -4 3 -5 2 -2 -2z"/>
<path d="M1930 2370 c0 -5 5 -10 10 -10 6 0 10 5 10 10 0 6 -4 10 -10 10 -5 0
-10 -4 -10 -10z"/>
<path d="M1880 2308 c0 -5 7 -8 15 -4 10 4 15 -1 15 -14 0 -11 4 -20 10 -20 5
0 7 7 3 15 -3 10 -1 15 7 13 7 -2 14 3 16 10 1 7 0 8 -3 2 -2 -5 -9 -8 -14 -4
-18 11 -49 13 -49 2z"/>
<path d="M1878 2283 c7 -3 16 -2 19 1 4 3 -2 6 -13 5 -11 0 -14 -3 -6 -6z"/>
<path d="M1898 2243 c7 -3 16 -2 19 1 4 3 -2 6 -13 5 -11 0 -14 -3 -6 -6z"/>
<path d="M2416 2657 c3 -10 9 -15 12 -12 3 3 0 11 -7 18 -10 9 -11 8 -5 -6z"/>
<path d="M2416 2615 c-9 -26 -7 -32 5 -12 6 10 9 21 6 23 -2 3 -7 -2 -11 -11z"/>
<path d="M2382 2600 c0 -14 2 -19 5 -12 2 6 2 18 0 25 -3 6 -5 1 -5 -13z"/>
<path d="M2397 2558 c-8 -30 -1 -35 12 -9 6 11 7 22 2 25 -5 3 -11 -4 -14 -16z"/>
<path d="M2705 2610 c3 -5 11 -10 16 -10 6 0 7 5 4 10 -3 6 -11 10 -16 10 -6
0 -7 -4 -4 -10z"/>
<path d="M3264 2121 c0 -16 7 -20 40 -19 30 0 35 3 22 10 -9 5 -24 7 -32 4 -8
-3 -14 1 -14 9 0 8 -4 15 -8 15 -4 0 -8 -9 -8 -19z"/>
<path d="M238 2473 c6 -2 10 -9 6 -14 -5 -8 8 -12 22 -6 3 1 10 -6 15 -15 6
-10 18 -18 27 -18 13 0 12 3 -6 16 -13 9 -19 20 -15 27 4 8 2 8 -9 -1 -13 -10
-17 -10 -22 3 -3 8 -11 15 -18 14 -10 0 -10 -2 0 -6z"/>
<path d="M355 2411 c-6 -11 13 -26 22 -17 4 3 1 6 -6 6 -7 0 -9 5 -6 10 3 6 4
10 1 10 -3 0 -7 -4 -11 -9z"/>
<path d="M500 2350 c0 -5 5 -10 11 -10 5 0 7 5 4 10 -3 6 -8 10 -11 10 -2 0
-4 -4 -4 -10z"/>
<path d="M310 2331 c0 -6 4 -13 10 -16 6 -3 7 1 4 9 -7 18 -14 21 -14 7z"/>
<path d="M440 2331 c0 -5 7 -11 14 -14 10 -4 13 -1 9 9 -6 15 -23 19 -23 5z"/>
<path d="M699 2263 c-12 -16 -12 -17 2 -6 9 7 20 9 24 5 5 -4 5 -1 1 6 -9 16
-11 15 -27 -5z"/>
<path d="M500 2256 c0 -2 7 -7 16 -10 8 -3 12 -2 9 4 -6 10 -25 14 -25 6z"/>
<path d="M564 2248 c-5 -7 -3 -8 6 -3 7 4 16 2 21 -6 7 -11 9 -10 9 4 0 19
-25 23 -36 5z"/>
<path d="M610 2230 c0 -5 5 -10 11 -10 5 0 7 5 4 10 -3 6 -8 10 -11 10 -2 0
-4 -4 -4 -10z"/>
<path d="M578 2218 c11 -14 52 -31 52 -22 0 2 -15 11 -32 20 -28 14 -31 15
-20 2z"/>
<path d="M666 2183 c-6 -14 -5 -15 5 -6 7 7 10 15 7 18 -3 3 -9 -2 -12 -12z"/>
<path d="M860 2101 c0 -6 4 -13 10 -16 6 -3 7 1 4 9 -7 18 -14 21 -14 7z"/>
<path d="M890 2086 c0 -2 8 -10 18 -17 15 -13 16 -12 3 4 -13 16 -21 21 -21
13z"/>
<path d="M2653 2184 c-18 -9 -33 -20 -33 -24 0 -13 35 -7 47 9 11 14 14 14 23
1 7 -11 10 -11 10 -2 0 7 5 10 11 6 7 -4 10 -1 7 7 -7 20 -28 21 -65 3z"/>
<path d="M3001 2103 c-6 -10 -11 -12 -11 -5 0 15 -30 16 -30 1 0 -7 -9 -9 -24
-5 -16 4 -26 1 -30 -10 -4 -10 -2 -13 6 -8 6 4 33 7 60 8 38 0 48 3 43 14 -4
10 0 12 10 8 9 -3 13 -2 10 4 -9 15 -23 12 -34 -7z"/>
<path d="M3070 2090 c0 -5 5 -10 11 -10 5 0 7 5 4 10 -3 6 -8 10 -11 10 -2 0
-4 -4 -4 -10z"/>
<path d="M2840 2022 c0 -12 19 -26 26 -19 2 2 -2 10 -11 17 -9 8 -15 8 -15 2z"/>
<path d="M2830 1983 c0 -8 5 -11 10 -8 6 3 10 -1 10 -11 0 -13 3 -14 15 -4 21
18 19 27 -10 32 -17 4 -25 1 -25 -9z"/>
<path d="M2875 1940 c-3 -5 -1 -10 4 -10 6 0 11 5 11 10 0 6 -2 10 -4 10 -3 0
-8 -4 -11 -10z"/>
<path d="M2967 1843 c3 -7 6 -13 8 -13 2 0 5 6 8 13 3 8 -1 14 -8 14 -7 0 -11
-6 -8 -14z"/>
<path d="M3000 1830 c0 -5 7 -7 15 -4 8 4 15 8 15 10 0 2 -7 4 -15 4 -8 0 -15
-4 -15 -10z"/>
<path d="M2977 1809 c7 -7 15 -10 18 -7 3 3 -2 9 -12 12 -14 6 -15 5 -6 -5z"/>
<path d="M2220 1810 c-9 -6 -10 -10 -3 -10 6 0 15 5 18 10 8 12 4 12 -15 0z"/>
<path d="M2267 1779 c7 -7 15 -10 18 -7 3 3 -2 9 -12 12 -14 6 -15 5 -6 -5z"/>
<path d="M2200 1621 c0 -10 19 -25 25 -20 1 2 -3 10 -11 17 -8 7 -14 8 -14 3z"/>
<path d="M3855 1800 c-8 -13 5 -13 25 0 13 8 13 10 -2 10 -9 0 -20 -4 -23 -10z"/>
<path d="M3890 1762 c0 -12 19 -26 26 -19 2 2 -2 10 -11 17 -9 8 -15 8 -15 2z"/>
<path d="M1173 1545 c-10 -10 -9 -16 3 -26 12 -10 13 -9 8 6 -5 13 -4 16 4 11
8 -5 10 -2 6 8 -7 19 -6 19 -21 1z"/>
<path d="M995 1510 c3 -5 1 -10 -6 -10 -7 0 -10 -2 -8 -5 3 -2 15 -2 28 2 17
4 19 8 9 14 -18 12 -31 11 -23 -1z"/>
<path d="M1210 1511 c0 -5 7 -12 16 -15 14 -5 15 -4 4 9 -14 17 -20 19 -20 6z"/>
<path d="M1076 1495 c-11 -8 -15 -15 -9 -15 6 0 16 7 23 15 16 19 11 19 -14 0z"/>
<path d="M1156 1482 c-5 -15 -13 -21 -22 -18 -9 3 -12 1 -9 -4 9 -14 17 -12
45 11 14 11 20 18 13 15 -6 -3 -13 0 -16 6 -2 7 -7 3 -11 -10z"/>
<path d="M1070 1455 c0 -10 29 -24 34 -17 3 6 -3 12 -14 15 -11 3 -20 4 -20 2z"/>
<path d="M829 1453 c-13 -17 -13 -17 6 -3 11 8 22 16 24 17 2 2 0 3 -6 3 -6 0
-17 -8 -24 -17z"/>
<path d="M1701 1264 c0 -11 3 -14 6 -6 3 7 2 16 -1 19 -3 4 -6 -2 -5 -13z"/>
<path d="M1913 1235 c0 -8 4 -15 9 -15 4 0 8 4 8 9 0 6 -4 12 -8 15 -5 3 -9
-1 -9 -9z"/>
<path d="M1883 1208 c-15 -20 -25 -38 -20 -38 3 0 12 11 21 25 17 26 16 35 -1
13z"/>
<path d="M1448 1188 c-2 -16 -9 -22 -23 -20 -20 2 -20 2 -1 -12 23 -19 75 -15
87 7 11 19 -11 18 -35 -2 -19 -16 -22 -1 -3 18 10 11 9 12 -2 6 -11 -6 -13 -4
-8 8 3 10 2 17 -3 17 -5 0 -10 -10 -12 -22z"/>
<path d="M2074 1174 c3 -9 6 -19 6 -23 0 -4 6 -8 14 -8 12 0 12 4 -1 24 -18
26 -28 31 -19 7z"/>
<path d="M1795 1160 c-3 -5 -1 -10 4 -10 6 0 11 5 11 10 0 6 -2 10 -4 10 -3 0
-8 -4 -11 -10z"/>
<path d="M2010 1136 c0 -2 8 -10 18 -17 15 -13 16 -12 3 4 -13 16 -21 21 -21
13z"/>
<path d="M1707 1123 c-4 -3 -7 -11 -7 -17 0 -6 5 -5 12 2 6 6 9 14 7 17 -3 3
-9 2 -12 -2z"/>
<path d="M2086 1103 c7 -35 12 -40 27 -23 10 10 9 11 -1 5 -8 -4 -13 -2 -11 6
3 25 -1 39 -10 39 -5 0 -7 -12 -5 -27z"/>
<path d="M1390 1105 c0 -16 16 -20 24 -6 3 5 -1 11 -9 15 -9 3 -15 0 -15 -9z"/>
<path d="M1850 1090 c-9 -6 -10 -10 -3 -10 6 0 15 5 18 10 8 12 4 12 -15 0z"/>
<path d="M1883 1055 c0 -8 4 -12 9 -9 5 3 6 10 3 15 -9 13 -12 11 -12 -6z"/>
<path d="M2490 739 c0 -5 5 -7 10 -4 6 3 10 8 10 11 0 2 -4 4 -10 4 -5 0 -10
-5 -10 -11z"/>
<path d="M2625 720 c3 -5 8 -10 11 -10 2 0 4 5 4 10 0 6 -5 10 -11 10 -5 0 -7
-4 -4 -10z"/>
<path d="M2502 707 c18 -19 38 -22 38 -7 0 6 -4 10 -9 10 -5 0 -18 3 -28 7
-17 6 -17 6 -1 -10z"/>
<path d="M2790 689 c0 -5 5 -7 10 -4 6 3 10 8 10 11 0 2 -4 4 -10 4 -5 0 -10
-5 -10 -11z"/>
<path d="M2734 422 c4 -7 1 -12 -8 -12 -9 0 -16 -4 -16 -10 0 -16 27 -12 33 5
4 8 1 17 -5 21 -7 4 -8 3 -4 -4z"/>
<path d="M2538 386 c-21 -11 -38 -24 -38 -28 0 -4 14 1 31 11 18 11 39 17 48
14 13 -4 13 -3 2 5 -11 8 -11 10 0 15 8 3 10 5 4 5 -5 0 -27 -10 -47 -22z"/>
<path d="M2693 305 c0 -8 4 -15 9 -15 4 0 8 4 8 9 0 6 -4 12 -8 15 -5 3 -9 -1
-9 -9z"/>
<path d="M2220 3704 c0 -8 5 -12 10 -9 6 3 10 10 10 16 0 5 -4 9 -10 9 -5 0
-10 -7 -10 -16z"/>
<path d="M2259 3694 c-23 -25 -23 -26 -2 -15 23 12 38 29 31 37 -3 2 -15 -8
-29 -22z"/>
<path d="M2293 3684 c-3 -9 -1 -25 5 -34 9 -14 8 -21 -3 -30 -12 -10 -16 -9
-21 3 -4 13 -9 13 -18 4 -11 -9 -9 -14 8 -23 29 -15 43 -8 55 28 15 41 14 48
-5 48 -8 0 -12 5 -9 10 3 6 4 10 0 10 -3 0 -8 -7 -12 -16z"/>
<path d="M2093 3635 c0 -8 4 -12 9 -9 5 3 6 10 3 15 -9 13 -12 11 -12 -6z"/>
<path d="M2178 3643 c7 -3 16 -2 19 1 4 3 -2 6 -13 5 -11 0 -14 -3 -6 -6z"/>
<path d="M2190 3580 c0 -5 5 -10 11 -10 5 0 7 5 4 10 -3 6 -8 10 -11 10 -2 0
-4 -4 -4 -10z"/>
<path d="M70 2443 c0 -5 5 -15 10 -23 8 -12 10 -11 10 8 0 12 -4 22 -10 22 -5
0 -10 -3 -10 -7z"/>
<path d="M100 2306 c0 -8 5 -18 12 -22 7 -4 8 -3 4 4 -4 7 -2 12 4 12 6 0 8 5
5 10 -9 15 -25 12 -25 -4z"/>
<path d="M3096 403 c-6 -14 -5 -15 5 -6 7 7 10 15 7 18 -3 3 -9 -2 -12 -12z"/>
<path d="M3266 405 c-3 -8 -1 -15 3 -15 5 0 11 7 15 15 3 8 1 15 -3 15 -5 0
-11 -7 -15 -15z"/>
<path d="M3140 390 c0 -5 5 -10 11 -10 5 0 7 5 4 10 -3 6 -8 10 -11 10 -2 0
-4 -4 -4 -10z"/>
<path d="M3239 395 c-1 -3 -2 -9 -3 -15 -2 -14 -34 -50 -46 -50 -14 0 -12 17
3 23 6 2 -3 4 -21 3 -25 -1 -29 -3 -18 -12 12 -8 12 -12 -5 -22 -16 -10 -19
-9 -19 3 0 8 -4 15 -10 15 -14 0 -12 -11 4 -33 10 -13 15 -14 19 -5 2 8 18 14
33 16 41 3 94 30 94 47 0 8 -7 15 -16 15 -8 0 -12 5 -9 10 3 6 4 10 1 10 -3 0
-7 -2 -7 -5z"/>
<path d="M3027 383 c-8 -18 -1 -36 16 -39 17 -2 17 -1 3 15 -9 10 -13 21 -9
24 3 4 4 7 0 7 -3 0 -8 -3 -10 -7z"/>
<path d="M3090 360 c-9 -6 -10 -10 -3 -10 6 0 15 5 18 10 8 12 4 12 -15 0z"/>
<path d="M3039 313 c-12 -16 -12 -17 2 -6 9 7 20 9 24 5 5 -4 5 -1 1 6 -9 16
-11 15 -27 -5z"/>
</g>
</svg>
